<?xml version="1.0" encoding="UTF-8" standalone="no"?>
<svg
   xmlns:dc="http://purl.org/dc/elements/1.1/"
   xmlns:cc="http://creativecommons.org/ns#"
   xmlns:rdf="http://www.w3.org/1999/02/22-rdf-syntax-ns#"
   xmlns:svg="http://www.w3.org/2000/svg"
   xmlns="http://www.w3.org/2000/svg"
   xmlns:sodipodi="http://sodipodi.sourceforge.net/DTD/sodipodi-0.dtd"
   xmlns:inkscape="http://www.inkscape.org/namespaces/inkscape"
   viewBox="0 0 85.999998 85.999999"
   version="1.1"
   id="svg4618"
   sodipodi:docname="Tools.svg"
   inkscape:version="0.92.4 (5da689c313, 2019-01-14)"
   width="86"
   height="86">
  <metadata
     id="metadata4622">
    <rdf:RDF>
      <cc:Work
         rdf:about="">
        <dc:format>image/svg+xml</dc:format>
        <dc:type
           rdf:resource="http://purl.org/dc/dcmitype/StillImage" />
        <dc:title>Artboard 70</dc:title>
      </cc:Work>
    </rdf:RDF>
  </metadata>
  <sodipodi:namedview
     pagecolor="#ffffff"
     bordercolor="#666666"
     borderopacity="1"
     objecttolerance="10"
     gridtolerance="10"
     guidetolerance="10"
     inkscape:pageopacity="0"
     inkscape:pageshadow="2"
     inkscape:window-width="3840"
     inkscape:window-height="2035"
     id="namedview4620"
     showgrid="false"
     inkscape:zoom="13.955205"
     inkscape:cx="77.174215"
     inkscape:cy="31.382251"
     inkscape:window-x="3827"
     inkscape:window-y="-13"
     inkscape:window-maximized="1"
     inkscape:current-layer="g4616"
     fit-margin-top="0"
     fit-margin-left="0"
     fit-margin-right="0"
     fit-margin-bottom="0" />
  <defs
     id="defs4579">
    <style
       id="style4571">.cls-1,.cls-2{fill:none;}.cls-1{opacity:0.18;}.cls-3{isolation:isolate;}.cls-4{opacity:0.38;}.cls-5{clip-path:url(#clip-path);}.cls-6{clip-path:url(#clip-path-2);}.cls-7{mix-blend-mode:multiply;}.cls-8{fill:#00bfc1;}.cls-9{fill:#2b393f;}.cls-10{fill:#d9dbdc;}.cls-11{fill:#02e49b;}</style>
    <clipPath
       id="clip-path">
      <circle
         class="cls-1"
         cx="123.79"
         cy="206.31"
         r="37.240002"
         id="circle4573"
         style="opacity:0.18000004;fill:none" />
    </clipPath>
    <clipPath
       id="clip-path-2">
      <circle
         class="cls-2"
         cx="123.79"
         cy="206.05"
         r="83.059998"
         id="circle4576"
         style="fill:none" />
    </clipPath>
  </defs>
  <title
     id="title4581">Artboard 70</title>
  <g
     style="isolation:isolate"
     class="cls-3"
     id="g4616"
     transform="translate(-35.818642,45.915442)">
    <g
       id="g6702"
       transform="matrix(3.0474262,0,0,3.0474262,-65.212813,-99.895162)">
      <g
         data-name="Layer 1"
         id="Layer_1">
        <g
           id="g4605"
           class="cls-4"
           style="opacity:0.38000039">
          <g
             id="g4603"
             clip-path="url(#clip-path)"
             class="cls-5">
            <g
               id="g4601"
               clip-path="url(#clip-path-2)"
               class="cls-6">
              <g
                 id="g4599"
                 class="cls-7"
                 style="mix-blend-mode:multiply">
                <ellipse
                   id="ellipse4583"
                   transform="rotate(-18.2,86.13919,85.066912)"
                   ry="0.28999999"
                   rx="0.76999998"
                   cy="85.07"
                   cx="86.139999"
                   class="cls-8"
                   style="fill:#00bfc1" />
                <ellipse
                   id="ellipse4585"
                   transform="rotate(-12.85,85.562733,85.08505)"
                   ry="0.20999999"
                   rx="0.74000001"
                   cy="85.07"
                   cx="85.519997"
                   class="cls-8"
                   style="fill:#00bfc1" />
                <ellipse
                   id="ellipse4587"
                   transform="rotate(-13.58,84.929709,85.068731)"
                   ry="0.22"
                   rx="0.74000001"
                   cy="85.07"
                   cx="84.949997"
                   class="cls-8"
                   style="fill:#00bfc1" />
                <ellipse
                   id="ellipse4589"
                   transform="rotate(-7.83,82.628226,85.076751)"
                   ry="0.14"
                   rx="0.69"
                   cy="85.07"
                   cx="82.620003"
                   class="cls-8"
                   style="fill:#00bfc1" />
                <ellipse
                   id="ellipse4591"
                   transform="rotate(-7.83,82.409043,85.061751)"
                   ry="0.14"
                   rx="0.69"
                   cy="85.07"
                   cx="82.410004"
                   class="cls-8"
                   style="fill:#00bfc1" />
                <ellipse
                   id="ellipse4593"
                   transform="rotate(-7.83,82.409043,85.061751)"
                   ry="0.14"
                   rx="0.69"
                   cy="85.07"
                   cx="82.410004"
                   class="cls-8"
                   style="fill:#00bfc1" />
                <ellipse
                   id="ellipse4595"
                   transform="rotate(-7.83,82.774347,85.086751)"
                   ry="0.14"
                   rx="0.69"
                   cy="85.07"
                   cx="82.779999"
                   class="cls-8"
                   style="fill:#00bfc1" />
                <ellipse
                   id="ellipse4597"
                   transform="rotate(-7.83,83.363833,85.053691)"
                   ry="0.14"
                   rx="0.69"
                   cy="85.07"
                   cx="83.32"
                   class="cls-8"
                   style="fill:#00bfc1" />
              </g>
            </g>
          </g>
        </g>
        <path
           id="path4609"
           d="m 43.66,35.16 3.73,-8.09 a 0.49,0.49 0 0 1 0.7,-0.22 l 2.07,1.2 a 0.49,0.49 0 0 1 0.2,0.63 l -3.74,8.1 A 0.51,0.51 0 0 1 45.92,37 l -2.06,-1.2 a 0.5,0.5 0 0 1 -0.2,-0.64 z"
           class="cls-10"
           inkscape:connector-curvature="0"
           style="fill:#d9dbdc" />
        <path
           id="path4611"
           d="M 36.21,27.89 38,34 a 0.49,0.49 0 0 0 0.63,0.33 l 1.81,-0.59 a 0.49,0.49 0 0 0 0.32,-0.61 L 39.39,28.5 a 0.5,0.5 0 0 1 0.32,-0.61 l 4.56,-1.56 a 0.49,0.49 0 0 0 0.32,-0.61 L 44,23.91 a 0.5,0.5 0 0 0 -0.64,-0.32 l -6,2.06 -1.2,0.35 a 0.49,0.49 0 0 0 -0.32,0.61 z"
           class="cls-11"
           inkscape:connector-curvature="0"
           style="fill:#02e49b" />
        <path
           id="path4613"
           d="m 57.11,38 -6,2.06 a 0.5,0.5 0 0 1 -0.63,-0.32 l -0.57,-1.82 a 0.5,0.5 0 0 1 0.31,-0.62 l 4.57,-1.56 A 0.49,0.49 0 0 0 55.1,35.13 L 53.73,30.5 a 0.5,0.5 0 0 1 0.33,-0.61 l 1.81,-0.58 a 0.49,0.49 0 0 1 0.63,0.33 l 1.81,6.11 0.37,1.21 a 0.48,0.48 0 0 1 -0.31,0.62 z"
           class="cls-11"
           inkscape:connector-curvature="0"
           style="fill:#02e49b" />
      </g>
    </g>
  </g>
</svg>
