<svg width="86" height="86" xmlns="http://www.w3.org/2000/svg">
 <g>
  <title>background</title>
  <rect x="-1" y="-1" width="88" height="88" id="canvas_background" fill="none"/>
 </g>

 <g>
  <title>Layer 1</title>
  <g id="prefix__g4616" stroke="null">
   <g id="prefix__g6702" transform="matrix(3.528003230007304,0,0,3.528003230007304,-81.77795936626137,-122.79014972124361) " stroke="null">
    <g id="prefix__Layer_1" stroke="null">
     <path id="prefix__path4609" d="m31.76456,50.32914l3.73,-8.09a0.49,0.49 0 0 1 0.7,-0.22l2.07,1.2a0.49,0.49 0 0 1 0.2,0.63l-3.74,8.1a0.51,0.51 0 0 1 -0.7,0.22l-2.06,-1.2a0.5,0.5 0 0 1 -0.2,-0.64z" fill="#969696" stroke="null"/>
     <path id="prefix__path4611" d="m24.31456,43.05914l1.79,6.11a0.49,0.49 0 0 0 0.63,0.33l1.81,-0.59a0.49,0.49 0 0 0 0.32,-0.61l-1.37,-4.63a0.5,0.5 0 0 1 0.32,-0.61l4.56,-1.56a0.49,0.49 0 0 0 0.32,-0.61l-0.59,-1.81a0.5,0.5 0 0 0 -0.64,-0.32l-6,2.06l-1.2,0.35a0.49,0.49 0 0 0 -0.32,0.61l0.37,1.28z" class="prefix__cls-11" fill="#00e599" stroke="null"/>
     <path id="prefix__path4613" d="m45.21456,53.16914l-6,2.06a0.5,0.5 0 0 1 -0.63,-0.32l-0.57,-1.82a0.5,0.5 0 0 1 0.31,-0.62l4.57,-1.56a0.49,0.49 0 0 0 0.31,-0.61l-1.37,-4.63a0.5,0.5 0 0 1 0.33,-0.61l1.81,-0.58a0.49,0.49 0 0 1 0.63,0.33l1.81,6.11l0.37,1.21a0.48,0.48 0 0 1 -0.31,0.62l-1.26,0.42z" class="prefix__cls-11" fill="#00e599" stroke="null"/>
    </g>
   </g>
  </g>
 </g>
</svg>